<svg width="9" height="14" viewBox="0 0 9 14" fill="none" xmlns="http://www.w3.org/2000/svg"><path d="M8.96215 5.95498C8.90081 5.82474 8.76278 5.74334 8.59409 5.74334H5.08223L6.09438 0.439548C6.10972 0.341871 6.12506 0.211634 6.03304 0.0976773C5.98703 0.0325591 5.91036 0 5.83368 0C5.66499 0 5.57297 0.146516 5.5423 0.195355L0.0828126 7.82379C-0.00920127 7.9703 -0.0245371 8.1331 0.0368055 8.26334C0.098148 8.39357 0.236169 8.47497 0.404861 8.47497H3.79404L2.75121 13.5605C2.73588 13.6581 2.72054 13.7884 2.81256 13.9023C2.85856 13.9674 2.93524 14 3.02726 14C3.19595 14 3.28796 13.8372 3.31863 13.7884L8.93148 6.39453C9.00816 6.24801 9.02349 6.08522 8.96215 5.95498Z" fill="#FFD645"></path></svg>