<svg width="18" height="16" viewBox="0 0 18 16" fill="none" xmlns="http://www.w3.org/2000/svg"><path d="M9.59875 0C6.28404 0 3.43488 2.02017 2.26446 4.89432L1.79799 4.06903C1.7381 3.95612 1.648 3.8621 1.53774 3.79746C1.42748 3.73283 1.30141 3.70013 1.17364 3.70303C1.05402 3.7057 0.937156 3.73947 0.834553 3.80102C0.73195 3.86258 0.647145 3.94979 0.588485 4.05408C0.529826 4.15836 0.499334 4.27612 0.500011 4.39577C0.500688 4.51542 0.532512 4.63283 0.592349 4.73644L1.8554 6.99703C1.9432 7.15279 2.08811 7.26831 2.25952 7.31919C2.43093 7.37008 2.61541 7.35235 2.77398 7.26973L5.0202 6.12149C5.1046 6.0828 5.18032 6.02744 5.24279 5.95876C5.30526 5.89007 5.35321 5.80946 5.38375 5.72178C5.41429 5.6341 5.42679 5.54115 5.42051 5.44852C5.41422 5.35588 5.38928 5.26548 5.34718 5.18272C5.30507 5.09997 5.24668 5.02657 5.1755 4.96695C5.10432 4.90733 5.02183 4.86272 4.93298 4.83579C4.84412 4.80885 4.75074 4.80015 4.65844 4.81021C4.56614 4.82027 4.47682 4.84888 4.39585 4.89432L3.57056 5.31773C4.55743 3.0089 6.8827 1.37787 9.59875 1.37787C13.2158 1.37787 16.1221 4.25355 16.1221 7.80795C16.1221 11.3623 13.2158 14.238 9.59875 14.238C6.50452 14.238 3.92708 12.1146 3.24763 9.28629C3.2048 9.10833 3.09303 8.95468 2.93691 8.85913C2.7808 8.76357 2.59311 8.73395 2.41515 8.77678C2.2372 8.8196 2.08354 8.93136 1.98798 9.08748C1.89243 9.2436 1.86281 9.43128 1.90563 9.60924C2.73337 13.0548 5.87427 15.6159 9.59875 15.6159C13.9506 15.6159 17.5 12.117 17.5 7.80795C17.5 3.49891 13.9506 0 9.59875 0ZM9.68487 3.43033C9.59378 3.43127 9.50379 3.45026 9.42009 3.4862C9.33639 3.52214 9.26066 3.57433 9.19726 3.63974C9.13385 3.70514 9.08405 3.78246 9.05073 3.86724C9.01741 3.95201 9.00122 4.04255 9.00312 4.13362V7.80795C9.00306 7.9113 9.02624 8.01334 9.07096 8.10651C9.11569 8.19968 9.18079 8.2816 9.26147 8.34619L11.5579 10.1834C11.6286 10.2399 11.7097 10.282 11.7967 10.3072C11.8836 10.3324 11.9747 10.3402 12.0646 10.3302C12.1546 10.3202 12.2417 10.2926 12.321 10.249C12.4003 10.2053 12.4702 10.1464 12.5268 10.0758C12.5833 10.0051 12.6254 9.92393 12.6506 9.83698C12.6758 9.75004 12.6836 9.65899 12.6736 9.56902C12.6636 9.47905 12.636 9.39193 12.5923 9.31264C12.5486 9.23335 12.4898 9.16344 12.4191 9.10689L10.381 7.47783V4.13362C10.3829 4.04134 10.3663 3.94961 10.3321 3.86389C10.2978 3.77816 10.2468 3.70019 10.1818 3.63459C10.1169 3.56899 10.0394 3.51711 9.95407 3.48202C9.86871 3.44693 9.77716 3.42936 9.68487 3.43033Z" fill="#706d79"></path></svg>