<svg width="747" height="153" viewBox="0 0 747 153" fill="none" xmlns="http://www.w3.org/2000/svg">
<path d="M49.9978 83.0203V102.144C50.0093 109.733 48.2842 117.224 44.9544 124.044C40.8483 132.468 34.4566 139.569 26.5086 144.534C18.5607 149.5 9.37687 152.132 0.00518799 152.128V80.0967C0.00518799 79.5759 0.00518799 79.0665 0.00518799 78.5627C0.571228 30.8285 28.2421 56.9824 42.1554 73.208C46.8591 78.6816 49.9978 83.0203 49.9978 83.0203Z" fill="url(#paint0_linear_1_12)"/>
<path d="M50.0743 83.1193C50.0653 83.1067 50.0549 83.0953 50.0431 83.0853L50.0205 83.0655L49.995 83.0344C49.995 83.0344 29.4166 54.4692 14.6685 51.5399C7.94673 50.2041 2.43068 54.1946 0.627838 68.6372C0.183969 72.4405 -0.0249192 76.2676 0.00236412 80.0967V28.737C0.00138072 22.836 1.81736 17.0778 5.20349 12.245C8.58962 7.4122 13.3817 3.73921 18.9283 1.72521C24.475 -0.288779 30.5073 -0.546091 36.2053 0.988252C41.9034 2.52259 46.9908 5.77417 50.7762 10.3011L87.7442 54.4975L90.1895 57.4211L94.8707 63.0192L99.965 69.0957C101.553 139.712 52.429 85.7571 50.0743 83.1193Z" fill="url(#paint1_linear_1_12)"/>
<path d="M101.706 62.2009V48.2961C101.706 21.6239 123.328 0.00195312 150 0.00195312V123.977C150 139.525 137.397 152.128 121.849 152.128C113.659 152.128 105.875 148.561 100.528 142.358L49.2903 82.0778C65.5018 86.2213 76.141 87.5805 82.6231 86.1073C93.785 83.5705 99.9509 73.1627 101.706 62.2009Z" fill="url(#paint2_linear_1_12)"/>
<path d="M257.5 107.418H242.51L215.508 61.3242V107.418H201.494V37.3984H216.484L243.486 83.541V37.3984H257.5V107.418Z" fill="url(#paint3_linear_1_12)"/>
<path d="M322.877 80.8066C322.877 84.7129 322.177 88.3587 320.777 91.7441C319.378 95.097 317.473 98.0104 315.064 100.484C312.656 102.926 309.824 104.863 306.568 106.295C303.346 107.695 299.879 108.395 296.168 108.395C292.49 108.395 289.023 107.695 285.768 106.295C282.545 104.863 279.713 102.926 277.271 100.484C274.863 98.0104 272.958 95.097 271.559 91.7441C270.159 88.3587 269.459 84.7129 269.459 80.8066C269.459 76.8353 270.159 73.1569 271.559 69.7715C272.958 66.3861 274.863 63.4727 277.271 61.0312C279.713 58.5573 282.545 56.6204 285.768 55.2207C289.023 53.821 292.49 53.1211 296.168 53.1211C299.879 53.1211 303.346 53.7884 306.568 55.123C309.824 56.4251 312.656 58.2969 315.064 60.7383C317.473 63.1471 319.378 66.0605 320.777 69.4785C322.177 72.8639 322.877 76.64 322.877 80.8066ZM309.449 80.8066C309.449 78.6582 309.091 76.7214 308.375 74.9961C307.691 73.2383 306.747 71.7409 305.543 70.5039C304.339 69.2344 302.923 68.2741 301.295 67.623C299.7 66.9395 297.991 66.5977 296.168 66.5977C294.345 66.5977 292.62 66.9395 290.992 67.623C289.397 68.2741 287.997 69.2344 286.793 70.5039C285.621 71.7409 284.693 73.2383 284.01 74.9961C283.326 76.7214 282.984 78.6582 282.984 80.8066C282.984 82.8249 283.326 84.6966 284.01 86.4219C284.693 88.1471 285.621 89.6445 286.793 90.9141C287.997 92.1836 289.397 93.1927 290.992 93.9414C292.62 94.6576 294.345 95.0156 296.168 95.0156C297.991 95.0156 299.7 94.6738 301.295 93.9902C302.923 93.3066 304.339 92.3464 305.543 91.1094C306.747 89.8724 307.691 88.375 308.375 86.6172C309.091 84.8594 309.449 82.9225 309.449 80.8066Z" fill="url(#paint4_linear_1_12)"/>
<path d="M362.961 107.418H332.492V94.1367H362.961C363.872 94.1367 364.654 93.8112 365.305 93.1602C365.956 92.5091 366.281 91.7279 366.281 90.8164C366.281 89.8724 365.956 89.2539 365.305 88.9609C364.654 88.668 363.872 88.5215 362.961 88.5215H349.094C346.783 88.5215 344.618 88.082 342.6 87.2031C340.581 86.3242 338.824 85.1361 337.326 83.6387C335.829 82.1087 334.641 80.3346 333.762 78.3164C332.915 76.2982 332.492 74.1335 332.492 71.8223C332.492 69.5111 332.915 67.3464 333.762 65.3281C334.641 63.3099 335.829 61.5521 337.326 60.0547C338.824 58.5573 340.581 57.3854 342.6 56.5391C344.618 55.6602 346.783 55.2207 349.094 55.2207H376.096V68.502H349.094C348.182 68.502 347.401 68.8275 346.75 69.4785C346.099 70.1296 345.773 70.9108 345.773 71.8223C345.773 72.7663 346.099 73.5801 346.75 74.2637C347.401 74.9147 348.182 75.2402 349.094 75.2402H362.961C365.24 75.2402 367.388 75.6309 369.406 76.4121C371.424 77.1608 373.182 78.2188 374.68 79.5859C376.177 80.9531 377.365 82.597 378.244 84.5176C379.123 86.4382 379.562 88.5378 379.562 90.8164C379.562 93.1276 379.123 95.2923 378.244 97.3105C377.365 99.2962 376.177 101.054 374.68 102.584C373.182 104.081 371.424 105.27 369.406 106.148C367.388 106.995 365.24 107.418 362.961 107.418Z" fill="url(#paint5_linear_1_12)"/>
<path d="M416.912 107.418C413.689 107.418 410.662 106.816 407.83 105.611C404.998 104.374 402.508 102.698 400.359 100.582C398.243 98.4336 396.567 95.9434 395.33 93.1113C394.126 90.2793 393.523 87.252 393.523 84.0293V68.502H387.029V55.2207H393.523V34.3223H406.805V55.2207H427.02V68.502H406.805V84.0293C406.805 85.429 407.065 86.7474 407.586 87.9844C408.107 89.1888 408.823 90.2467 409.734 91.1582C410.646 92.0697 411.72 92.8021 412.957 93.3555C414.194 93.8763 415.512 94.1367 416.912 94.1367H427.02V107.418H416.912Z" fill="url(#paint6_linear_1_12)"/>
<path d="M451.869 107.418H438.539V55.123H441.762L446.156 61.3242C448.305 59.3711 450.746 57.8737 453.48 56.832C456.215 55.7578 459.047 55.2207 461.977 55.2207H473.744V68.502H461.977C460.577 68.502 459.258 68.7624 458.021 69.2832C456.785 69.804 455.71 70.5202 454.799 71.4316C453.887 72.3431 453.171 73.4173 452.65 74.6543C452.13 75.8913 451.869 77.2096 451.869 78.6094V107.418Z" fill="url(#paint7_linear_1_12)"/>
<path d="M481.26 58.3945C481.26 55.4974 481.813 52.7793 482.92 50.2402C484.027 47.7012 485.524 45.4876 487.412 43.5996C489.333 41.679 491.562 40.1654 494.102 39.0586C496.641 37.9518 499.359 37.3984 502.256 37.3984H534.385V51.4121H502.256C501.279 51.4121 500.368 51.5911 499.521 51.9492C498.675 52.3073 497.926 52.8118 497.275 53.4629C496.657 54.0814 496.169 54.8138 495.811 55.6602C495.452 56.5065 495.273 57.418 495.273 58.3945C495.273 59.3711 495.452 60.2988 495.811 61.1777C496.169 62.0241 496.657 62.7728 497.275 63.4238C497.926 64.0423 498.675 64.5306 499.521 64.8887C500.368 65.2467 501.279 65.4258 502.256 65.4258H516.27C519.167 65.4258 521.885 65.9792 524.424 67.0859C526.995 68.1602 529.225 69.6576 531.113 71.5781C533.034 73.4661 534.531 75.696 535.605 78.2676C536.712 80.8066 537.266 83.5247 537.266 86.4219C537.266 89.319 536.712 92.0371 535.605 94.5762C534.531 97.1152 533.034 99.3451 531.113 101.266C529.225 103.154 526.995 104.651 524.424 105.758C521.885 106.865 519.167 107.418 516.27 107.418H485.166V93.4043H516.27C517.246 93.4043 518.158 93.2253 519.004 92.8672C519.85 92.5091 520.583 92.0208 521.201 91.4023C521.852 90.7513 522.357 90.0026 522.715 89.1562C523.073 88.3099 523.252 87.3984 523.252 86.4219C523.252 85.4453 523.073 84.5339 522.715 83.6875C522.357 82.8411 521.852 82.1087 521.201 81.4902C520.583 80.8392 519.85 80.3346 519.004 79.9766C518.158 79.6185 517.246 79.4395 516.27 79.4395H502.256C499.359 79.4395 496.641 78.8861 494.102 77.7793C491.562 76.6725 489.333 75.1751 487.412 73.2871C485.524 71.3665 484.027 69.1367 482.92 66.5977C481.813 64.026 481.26 61.2917 481.26 58.3945Z" fill="url(#paint8_linear_1_12)"/>
<path d="M614.605 88.5215C614.605 91.2559 614.085 93.8438 613.043 96.2852C612.001 98.694 610.569 100.794 608.746 102.584C606.956 104.374 604.84 105.79 602.398 106.832C599.99 107.874 597.402 108.395 594.635 108.395C592.161 108.395 589.785 107.971 587.506 107.125C585.227 106.246 583.16 104.977 581.305 103.316C579.482 104.977 577.431 106.246 575.152 107.125C572.906 107.971 570.53 108.395 568.023 108.395C565.257 108.395 562.669 107.874 560.26 106.832C557.851 105.79 555.735 104.374 553.912 102.584C552.122 100.794 550.706 98.694 549.664 96.2852C548.622 93.8438 548.102 91.2559 548.102 88.5215V55.2207H561.432V88.5215C561.432 89.4329 561.594 90.2956 561.92 91.1094C562.278 91.8906 562.75 92.5905 563.336 93.209C563.954 93.7949 564.654 94.2669 565.436 94.625C566.249 94.9505 567.112 95.1133 568.023 95.1133C568.935 95.1133 569.798 94.9505 570.611 94.625C571.425 94.2669 572.141 93.7949 572.76 93.209C573.378 92.5905 573.85 91.8906 574.176 91.1094C574.534 90.2956 574.713 89.4329 574.713 88.5215V55.2207H587.994V88.5215C587.994 89.4329 588.173 90.2956 588.531 91.1094C588.889 91.8906 589.361 92.5905 589.947 93.209C590.566 93.7949 591.266 94.2669 592.047 94.625C592.861 94.9505 593.723 95.1133 594.635 95.1133C595.546 95.1133 596.409 94.9505 597.223 94.625C598.036 94.2669 598.736 93.7949 599.322 93.209C599.941 92.5905 600.429 91.8906 600.787 91.1094C601.145 90.2956 601.324 89.4329 601.324 88.5215V55.2207H614.605V88.5215Z" fill="url(#paint9_linear_1_12)"/>
<path d="M678.908 107.418H675.686L670.51 100.24C669.24 101.38 667.889 102.454 666.457 103.463C665.057 104.439 663.576 105.302 662.014 106.051C660.451 106.767 658.84 107.337 657.18 107.76C655.552 108.183 653.892 108.395 652.199 108.395C648.521 108.395 645.054 107.776 641.799 106.539C638.576 105.302 635.744 103.512 633.303 101.168C630.894 98.7917 628.99 95.8945 627.59 92.4766C626.19 89.0586 625.49 85.1686 625.49 80.8066C625.49 76.7376 626.19 73.0104 627.59 69.625C628.99 66.207 630.894 63.2773 633.303 60.8359C635.744 58.3945 638.576 56.5065 641.799 55.1719C645.054 53.8047 648.521 53.1211 652.199 53.1211C653.892 53.1211 655.568 53.3327 657.229 53.7559C658.889 54.179 660.5 54.765 662.062 55.5137C663.625 56.2624 665.106 57.1413 666.506 58.1504C667.938 59.1595 669.273 60.25 670.51 61.4219L675.686 55.2207H678.908V107.418ZM665.48 80.8066C665.48 78.9837 665.122 77.2259 664.406 75.5332C663.723 73.8079 662.779 72.2943 661.574 70.9922C660.37 69.6576 658.954 68.5996 657.326 67.8184C655.731 67.0046 654.022 66.5977 652.199 66.5977C650.376 66.5977 648.651 66.9069 647.023 67.5254C645.428 68.1439 644.029 69.0553 642.824 70.2598C641.652 71.4642 640.725 72.9616 640.041 74.752C639.357 76.5098 639.016 78.528 639.016 80.8066C639.016 83.0853 639.357 85.1198 640.041 86.9102C640.725 88.668 641.652 90.1491 642.824 91.3535C644.029 92.5579 645.428 93.4694 647.023 94.0879C648.651 94.7064 650.376 95.0156 652.199 95.0156C654.022 95.0156 655.731 94.625 657.326 93.8438C658.954 93.0299 660.37 91.972 661.574 90.6699C662.779 89.3353 663.723 87.8216 664.406 86.1289C665.122 84.4036 665.48 82.6296 665.48 80.8066Z" fill="url(#paint10_linear_1_12)"/>
<path d="M706.541 127.34H693.113V55.123H696.336L701.658 61.4219C702.863 60.2826 704.181 59.2083 705.613 58.1992C707.046 57.1901 708.527 56.3275 710.057 55.6113C711.619 54.8626 713.23 54.2767 714.891 53.8535C716.551 53.4303 718.227 53.2188 719.92 53.2188C723.598 53.2188 727.049 53.8861 730.271 55.2207C733.527 56.5228 736.359 58.3783 738.768 60.7871C741.209 63.196 743.13 66.1094 744.529 69.5273C745.929 72.9128 746.629 76.6725 746.629 80.8066C746.629 85.1035 745.929 88.9772 744.529 92.4277C743.13 95.8457 741.209 98.7591 738.768 101.168C736.359 103.544 733.527 105.367 730.271 106.637C727.049 107.906 723.598 108.541 719.92 108.541C718.748 108.541 717.576 108.411 716.404 108.15C715.265 107.89 714.126 107.548 712.986 107.125C711.88 106.669 710.773 106.165 709.666 105.611C708.592 105.058 707.55 104.488 706.541 103.902V127.34ZM733.25 80.8066C733.25 78.5931 732.892 76.6074 732.176 74.8496C731.492 73.0918 730.548 71.6107 729.344 70.4062C728.139 69.1693 726.723 68.2253 725.096 67.5742C723.468 66.9232 721.743 66.5977 719.92 66.5977C718.097 66.5977 716.372 66.9232 714.744 67.5742C713.149 68.2253 711.749 69.1693 710.545 70.4062C709.34 71.6107 708.38 73.0918 707.664 74.8496C706.98 76.6074 706.639 78.5931 706.639 80.8066C706.639 82.9225 706.98 84.8594 707.664 86.6172C708.38 88.375 709.34 89.8724 710.545 91.1094C711.749 92.3464 713.149 93.3066 714.744 93.9902C716.372 94.6738 718.097 95.0156 719.92 95.0156C721.743 95.0156 723.468 94.6738 725.096 93.9902C726.723 93.3066 728.139 92.3464 729.344 91.1094C730.548 89.8724 731.492 88.375 732.176 86.6172C732.892 84.8594 733.25 82.9225 733.25 80.8066Z" fill="url(#paint11_linear_1_12)"/>
<path d="M322.877 80.8066C322.877 84.7129 322.177 88.3587 320.777 91.7441C319.378 95.097 317.473 98.0104 315.064 100.484C312.656 102.926 309.824 104.863 306.568 106.295C303.346 107.695 299.879 108.395 296.168 108.395C292.49 108.395 289.023 107.695 285.768 106.295C282.545 104.863 279.713 102.926 277.271 100.484C274.863 98.0104 272.958 95.097 271.559 91.7441C270.159 88.3587 269.459 84.7129 269.459 80.8066C269.459 76.8353 270.159 73.1569 271.559 69.7715C272.958 66.3861 274.863 63.4727 277.271 61.0312C279.713 58.5573 282.545 56.6204 285.768 55.2207C289.023 53.821 292.49 53.1211 296.168 53.1211C299.879 53.1211 303.346 53.7884 306.568 55.123C309.824 56.4251 312.656 58.2969 315.064 60.7383C317.473 63.1471 319.378 66.0605 320.777 69.4785C322.177 72.8639 322.877 76.64 322.877 80.8066ZM309.449 80.8066C309.449 78.6582 309.091 76.7214 308.375 74.9961C307.691 73.2383 306.747 71.7409 305.543 70.5039C304.339 69.2344 302.923 68.2741 301.295 67.623C299.7 66.9395 297.991 66.5977 296.168 66.5977C294.345 66.5977 292.62 66.9395 290.992 67.623C289.397 68.2741 287.997 69.2344 286.793 70.5039C285.621 71.7409 284.693 73.2383 284.01 74.9961C283.326 76.7214 282.984 78.6582 282.984 80.8066C282.984 82.8249 283.326 84.6966 284.01 86.4219C284.693 88.1471 285.621 89.6445 286.793 90.9141C287.997 92.1836 289.397 93.1927 290.992 93.9414C292.62 94.6576 294.345 95.0156 296.168 95.0156C297.991 95.0156 299.7 94.6738 301.295 93.9902C302.923 93.3066 304.339 92.3464 305.543 91.1094C306.747 89.8724 307.691 88.375 308.375 86.6172C309.091 84.8594 309.449 82.9225 309.449 80.8066Z" fill="#35DC94"/>
<defs>
<linearGradient id="paint0_linear_1_12" x1="-25.8621" y1="24.8921" x2="121.213" y2="55.9475" gradientUnits="userSpaceOnUse">
<stop stop-color="#01F9DB"/>
<stop offset="1" stop-color="#43ABD8"/>
</linearGradient>
<linearGradient id="paint1_linear_1_12" x1="49.7344" y1="6.254" x2="225.619" y2="62.1166" gradientUnits="userSpaceOnUse">
<stop stop-color="#01F9DB"/>
<stop offset="0.609375" stop-color="#43D8B6"/>
</linearGradient>
<linearGradient id="paint2_linear_1_12" x1="99.0206" y1="9.03629" x2="286.086" y2="50.7471" gradientUnits="userSpaceOnUse">
<stop stop-color="#01F9C6"/>
<stop offset="1" stop-color="#43D8B6"/>
</linearGradient>
<linearGradient id="paint3_linear_1_12" x1="201" y1="34" x2="747" y2="127" gradientUnits="userSpaceOnUse">
<stop stop-color="#35DC94"/>
<stop offset="0.578125" stop-color="#01D8E4"/>
</linearGradient>
<linearGradient id="paint4_linear_1_12" x1="201" y1="34" x2="747" y2="127" gradientUnits="userSpaceOnUse">
<stop stop-color="#35DC94"/>
<stop offset="0.578125" stop-color="#01D8E4"/>
</linearGradient>
<linearGradient id="paint5_linear_1_12" x1="201" y1="34" x2="747" y2="127" gradientUnits="userSpaceOnUse">
<stop stop-color="#35DC94"/>
<stop offset="0.578125" stop-color="#01D8E4"/>
</linearGradient>
<linearGradient id="paint6_linear_1_12" x1="201" y1="34" x2="747" y2="127" gradientUnits="userSpaceOnUse">
<stop stop-color="#35DC94"/>
<stop offset="0.578125" stop-color="#01D8E4"/>
</linearGradient>
<linearGradient id="paint7_linear_1_12" x1="201" y1="34" x2="747" y2="127" gradientUnits="userSpaceOnUse">
<stop stop-color="#35DC94"/>
<stop offset="0.578125" stop-color="#01D8E4"/>
</linearGradient>
<linearGradient id="paint8_linear_1_12" x1="201" y1="34" x2="747" y2="127" gradientUnits="userSpaceOnUse">
<stop stop-color="#35DC94"/>
<stop offset="0.578125" stop-color="#01D8E4"/>
</linearGradient>
<linearGradient id="paint9_linear_1_12" x1="201" y1="34" x2="747" y2="127" gradientUnits="userSpaceOnUse">
<stop stop-color="#35DC94"/>
<stop offset="0.578125" stop-color="#01D8E4"/>
</linearGradient>
<linearGradient id="paint10_linear_1_12" x1="201" y1="34" x2="747" y2="127" gradientUnits="userSpaceOnUse">
<stop stop-color="#35DC94"/>
<stop offset="0.578125" stop-color="#01D8E4"/>
</linearGradient>
<linearGradient id="paint11_linear_1_12" x1="201" y1="34" x2="747" y2="127" gradientUnits="userSpaceOnUse">
<stop stop-color="#35DC94"/>
<stop offset="0.578125" stop-color="#01D8E4"/>
</linearGradient>
</defs>
</svg>
