<?xml version="1.0" standalone="no"?><!DOCTYPE svg PUBLIC "-//W3C//DTD SVG 1.1//EN" "http://www.w3.org/Graphics/SVG/1.1/DTD/svg11.dtd"><svg t="1694511438980" class="icon" viewBox="0 0 1024 1024" version="1.1" xmlns="http://www.w3.org/2000/svg" p-id="10382" xmlns:xlink="http://www.w3.org/1999/xlink" width="200" height="200"><path d="M982.4 371.2L832 134.4c-12.8-19.2-32-32-54.4-32H246.4c-22.4 0-44.8 12.8-54.4 32L41.6 371.2c-12.8 22.4-12.8 51.2 6.4 70.4l435.2 464c6.4 9.6 19.2 12.8 28.8 12.8 9.6 0 22.4-3.2 28.8-12.8L640 800l-28.8-25.6L512 880 76.8 416c-6.4-6.4-6.4-16-3.2-25.6L224 153.6c6.4-6.4 12.8-12.8 22.4-12.8h531.2c9.6 0 16 3.2 22.4 12.8l150.4 236.8c6.4 6.4 3.2 16-3.2 25.6L828.8 544l28.8 25.6 118.4-128c19.2-19.2 22.4-48 6.4-70.4z" p-id="10383"></path><path d="M598.4 300.8l-86.4 256-89.6-256h-48L483.2 608h57.6l108.8-307.2zM720 550.4l-25.6-25.6L608 608v41.6h272V608H662.4zM608 723.2h217.6L768 780.8l25.6 28.8 86.4-83.2-3.2-3.2h3.2v-38.4H608z" p-id="10384"></path></svg>