<?xml version="1.0" standalone="no"?><!DOCTYPE svg PUBLIC "-//W3C//DTD SVG 1.1//EN" "http://www.w3.org/Graphics/SVG/1.1/DTD/svg11.dtd"><svg t="1694510928206" class="icon" viewBox="0 0 1024 1024" version="1.1" xmlns="http://www.w3.org/2000/svg" p-id="4045" xmlns:xlink="http://www.w3.org/1999/xlink" width="200" height="200"><path d="M927.929032 640.065509a31.994541 31.994541 0 0 0-31.994541 31.994541v127.978163c0 52.918971-43.064652 95.983623-95.983623 95.983623h-575.901736c-52.918971 0-95.983623-43.064652-95.983623-95.983623v-127.978163a31.994541 31.994541 0 0 0-63.989082 0v127.978163C64.076427 888.279157 135.872177 960.010918 224.049132 960.010918h575.901736c88.240944 0 159.972705-71.731761 159.972705-159.972705v-127.978163a31.994541 31.994541 0 0 0-31.994541-31.994541z" p-id="4046"></path><path d="M412.113043 777.386079c18.684812 18.684812 43.256619 28.027218 67.892416 28.027217s49.143615-9.342406 67.892416-28.027217l274.705128-274.705129A31.930552 31.930552 0 0 0 799.950868 448.098263h-159.140846a629.524587 629.524587 0 0 1 44.408423-202.909378L765.652721 44.0712a32.122519 32.122519 0 0 0-7.998636-35.449951 32.122519 32.122519 0 0 0-35.961864-5.055137L566.582687 81.120879A443.124392 443.124392 0 0 0 321.184558 448.098263H160.06005a31.994541 31.994541 0 0 0-22.652135 54.646676l274.705128 274.64114zM352.027295 512.023356a31.994541 31.994541 0 0 0 31.994541-31.994541A379.711212 379.711212 0 0 1 595.185806 138.391107l79.858375-39.929187-49.207604 122.923026A692.7458 692.7458 0 0 0 575.989082 480.092804a31.994541 31.994541 0 0 0 31.994541 31.994541h114.732424l-220.058453 220.058453a31.994541 31.994541 0 0 1-45.240281 0L237.294872 512.087345 352.027295 512.023356z" p-id="4047"></path></svg>