<?xml version="1.0" standalone="no"?><!DOCTYPE svg PUBLIC "-//W3C//DTD SVG 1.1//EN" "http://www.w3.org/Graphics/SVG/1.1/DTD/svg11.dtd"><svg t="1694511171086" class="icon" viewBox="0 0 1024 1024" version="1.1" xmlns="http://www.w3.org/2000/svg" p-id="5028" xmlns:xlink="http://www.w3.org/1999/xlink" width="200" height="200"><path d="M1006.350267 253.949336L753.785568 0v151.643982c-67.917294 0.543338-117.44872 15.932083-149.978913 31.040394H17.649733v841.298097h841.298097V402.158017l147.402437-148.208681z m-248.621115-67.268794c4.259072 0 8.623305 0.070108 13.040121 0.210325l18.052855 0.525811V84.971108l168.084349 168.995755-97.976174 98.484458-16.615638 16.703273-53.492537 53.790497V324.741065l-13.408189-3.242503c-2.085718-0.508284-51.58209-12.09366-117.676571 4.206491-20.173627 4.995207-43.291798 13.092702-67.671915 25.90497A333.452006 333.452006 0 0 0 518.800493 402.245652a397.408188 397.408188 0 0 0-46.972477 51.897577c2.01561-44.431056 14.897987-111.699849 65.919211-173.868274a310.947282 310.947282 0 0 1 43.607285-43.414487l0.543338-0.438176a99.501027 99.501027 0 0 1 5.065316-3.750787c0.911406-0.648501 1.857867-1.314528 2.927016-2.033137l1.577434-1.051623c1.507326-0.999041 3.154868-2.033137 4.960153-3.137341l0.753663-0.455703c25.326578-15.301109 78.153088-39.313159 160.54772-39.313159z m66.16459 250.72436v551.541011h-771.189922v-771.189922h497.031905c-1.209366 1.051623-2.296043 2.120772-3.470355 3.172395a320.096399 320.096399 0 0 0-12.56689 11.813227 289.126113 289.126113 0 0 0-11.62043 12.023552c-1.752704 1.910448-3.487882 3.820896-5.188005 5.731343a369.4175 369.4175 0 0 0-15.283582 18.701356 263.711899 263.711899 0 0 0-8.903738 12.356566 341.25154 341.25154 0 0 0-18.596193 30.619745c-1.191839 2.225935-2.31357 4.451869-3.435301 6.677804a280.117212 280.117212 0 0 0-5.87156 12.356565c-0.823771 1.857867-1.665069 3.698206-2.453786 5.556073-0.94646 2.225935-1.84034 4.451869-2.734219 6.660277a236.650144 236.650144 0 0 0-4.557031 12.128714 211.954539 211.954539 0 0 0-3.943585 11.935917 216.80953 216.80953 0 0 0-3.382719 11.690538c-0.455703 1.682596-0.911406 3.365192-1.332055 5.047789-0.543338 2.19088-1.051623 4.32918-1.54238 6.485006-0.368068 1.594961-0.753663 3.189922-1.086677 4.767356-0.47323 2.173353-0.876352 4.294126-1.297001 6.432425-0.29796 1.524853-0.613447 3.049706-0.876352 4.557031-0.385595 2.138299-0.718609 4.241545-1.06915 6.34479l-0.683555 4.294126c-0.315487 2.103245-0.578392 4.153909-0.841298 6.204573l-0.525811 4.083801c-0.245379 2.050664-0.438176 4.048747-0.630974 6.04683l-0.368068 3.785842c-0.17527 1.998083-0.29796 3.926058-0.438176 5.871559a278.732576 278.732576 0 0 0-0.508284 9.201698l-0.140216 3.26003-0.105163 5.485965-0.052581 2.891962c-0.017527 1.822813 0 3.575517 0.017527 5.310694l0.017527 2.523895 0.140217 4.872518 0.070108 2.401205 0.227851 4.539504 0.105163 2.050664c0.087635 1.489799 0.192797 2.856908 0.315486 4.224018l0.12269 1.700123 0.368068 3.961112 0.122689 1.261947 0.403122 3.55799 0.105162 0.928933a318.045735 318.045735 0 0 0 0.47323 3.698206c0.29796 2.050664 0.543338 3.575517 0.736136 4.62714l0.052581 0.315487 0.210325 1.104204 8.763522 45.097083 23.503765-39.470902c77.907709-130.874435 177.215939-160.144598 238.543065-164.298508a233.390114 233.390114 0 0 1 43.239217 0.963988v154.553471l70.125701-70.458716z" fill="" p-id="5029"></path></svg>